<svg id="Layer_1" data-name="Layer 1" xmlns="http://www.w3.org/2000/svg" viewBox="0 0 196 184.13"><defs><style>.cls-1{fill:#f2f2f2;}</style></defs><polygon class="cls-1" points="82.91 80.47 97.88 48.84 112.92 80.09 117.82 78.03 97.8 35.69 78.31 78.03 82.91 80.47"/><path class="cls-1" d="M234,228.61l-3.36,7.23q-29-9.57-58-19a5.54,5.54,0,0,1-3.32-2.64c-5.56-9.51-11.21-19-17-28.62a8,8,0,0,1,4.15-3.58,7.41,7.41,0,0,1,2.67-.44c1.8,3,3.55,6,5.29,8.88,3.46,5.83,6.85,11.67,10.4,17.44a5.51,5.51,0,0,0,2.7,2.17c9.39,3.17,18.84,6.2,28.27,9.3.35.11.72.19,1.43.37-.29-.75-.44-1.27-.67-1.72-3.2-6.26-6.24-12.6-9.69-18.71A37.09,37.09,0,0,0,191,192C182.16,183,173.26,174,164.38,165c-.31-.33-.59-.65-1-1.05l5.71-5.41c9.13,9.28,18.39,18.68,27.94,28.4,2.35-9.53,4.61-18.75,6.92-28.21a5.94,5.94,0,0,1,5.29-.38,5.27,5.27,0,0,1,2.34,2.26c-1.5,6.11-2.94,12.11-4.42,18.11-1.18,4.82-2.39,9.62-3.49,14.46a4.11,4.11,0,0,0,.32,2.56q6.75,13.38,13.65,26.68a2.69,2.69,0,0,0,1.13,1.22C223.66,225.25,228.56,226.84,234,228.61Z" transform="translate(-152.32 -157.83)"/><path class="cls-1" d="M266.7,228.65l3.36,7.23q29-9.57,58-19a5.57,5.57,0,0,0,3.32-2.64c5.56-9.51,11.21-19,16.94-28.62a8,8,0,0,0-4.14-3.58,7.41,7.41,0,0,0-2.67-.44c-1.8,3-3.55,6-5.29,8.88-3.46,5.83-6.85,11.67-10.4,17.44a5.51,5.51,0,0,1-2.7,2.17c-9.39,3.17-18.84,6.2-28.28,9.3-.34.11-.72.18-1.42.37.29-.75.44-1.27.67-1.72,3.2-6.26,6.24-12.6,9.69-18.71a37.09,37.09,0,0,1,5.91-7.29c8.8-9.09,17.7-18.07,26.58-27.08.31-.33.59-.65,1-1.05l-5.71-5.41c-9.13,9.28-18.39,18.68-27.94,28.4-2.35-9.53-4.61-18.75-6.92-28.21a5.94,5.94,0,0,0-5.29-.38,5.27,5.27,0,0,0-2.34,2.26c1.5,6.11,2.94,12.11,4.42,18.11,1.18,4.82,2.39,9.62,3.49,14.46a4.11,4.11,0,0,1-.32,2.56Q289.9,209.12,283,222.42a2.66,2.66,0,0,1-1.14,1.22C277,225.29,272.09,226.88,266.7,228.65Z" transform="translate(-152.32 -157.83)"/><path class="cls-1" d="M194.58,238.43c8.61,2.47,17.21,5,25.83,7.36a4.06,4.06,0,0,1,2.91,2.44q12.19,26.31,24.5,52.58c.55,1.17,1.17,2.31,1.89,3.73.51-1.06.85-1.75,1.18-2.45Q263.55,275,276.19,248a3.52,3.52,0,0,1,2.49-2.12c5.65-1.55,11.29-3.16,16.93-4.77,3.76-1.07,7.52-2.17,11.44-3.3l-2.2-7.54c-11.05,3.16-21.82,6.22-32.58,9.36a3,3,0,0,0-1.54,1.5q-8,17.05-16,34.16c-1.61,3.46-3.24,6.92-5,10.67-.42-.79-.68-1.22-.89-1.68q-10-21.36-20-42.75a3.71,3.71,0,0,0-2.63-2.23c-4.48-1.22-8.93-2.53-13.4-3.8l-18.35-5.22c-.73,2.51-1.41,4.9-2.16,7.5C193.23,238,193.9,238.24,194.58,238.43Z" transform="translate(-152.32 -157.83)"/><polygon class="cls-1" points="80.22 158.14 88.2 178.16 86.15 177.72 93.65 158.14 97.97 158.14 86.9 184.13 75.86 158.14 80.22 158.14"/><polygon class="cls-1" points="100.54 183 111.51 157.08 111.75 157.08 122.65 183 118.47 183 110.52 162.84 113.13 161.09 104.18 183 100.54 183"/><polygon class="cls-1" points="107.23 173.67 116.11 173.67 117.31 176.79 106.13 176.79 107.23 173.67"/><polygon class="cls-1" points="51.82 183 62.79 157.08 63.03 157.08 73.93 183 69.75 183 61.8 162.84 64.4 161.09 55.45 183 51.82 183"/><polygon class="cls-1" points="58.5 173.67 67.38 173.67 68.58 176.79 57.41 176.79 58.5 173.67"/><polygon class="cls-1" points="126.91 158.14 143.46 158.14 143.46 161.64 136.91 161.64 136.91 183 133.25 183 133.25 161.64 126.91 161.64 126.91 158.14"/></svg>