<svg id="Layer_1" data-name="Layer 1" xmlns="http://www.w3.org/2000/svg" viewBox="0 0 383.23 383.33"><defs><style>.cls-1{fill:#f2f2f2;}</style></defs><path class="cls-1" d="M420,255.25v23.21c-.82,6.53-1.3,13.12-2.5,19.58Q399,398,307.21,441.86c-8.13,3.88-16.81,6.61-25.6,10V309.64h41c2.09-16.12,4.12-31.86,6.22-48.12H281.48c0-11.66-.21-22.88.06-34.09.29-12.39,6.65-18.81,19.08-19.35,8.47-.37,17-.19,25.45-.25H330V164.12c-15-.23-29.87-1.16-44.62-.39a61.41,61.41,0,0,0-22.52,6.05c-20.15,9.55-29,27.06-30.53,48.41-.92,12.93-.39,25.93-.51,38.93v4.76H190.83V309.7h40.94V454.87a40.16,40.16,0,0,1-.36,4h-15c-3.57-.46-7.13-1-10.69-1.38-37.4-4.46-71.11-18.22-99.49-42.85-57.7-50.08-79.87-113.4-64.87-188.42,17-84.88,94.3-148.51,180.82-150.61,37.31-.9,72.33,7.48,104.22,27,49.61,30.36,80,74.3,90.7,131.59C418.36,241.12,419.07,248.23,420,255.25Z" transform="translate(-36.81 -75.54)"/></svg>