<svg id="Layer_1" data-name="Layer 1" xmlns="http://www.w3.org/2000/svg" viewBox="0 0 512 512"><defs><style>.cls-1{fill:#f4f4f4;}</style></defs><path class="cls-1" d="M239-10h32a28.69,28.69,0,0,0,3.85.82C314.71-6.2,352,5.24,386,26.17c66.08,40.69,106.78,99.2,121,175.72,1.73,9.29,2.64,18.73,3.93,28.11v32c-.41,3.28-.87,6.56-1.22,9.85-5.49,50.63-23.83,96-56.15,135.44-40.19,49-91.6,79.38-154,90.75-9.45,1.72-19.05,2.66-28.58,4H239c-6.25-.77-12.51-1.44-18.74-2.32C173,493,130.61,475,93.74,444.65,44.8,404.41,14.32,353.07,3,290.61,1.26,281.14.31,271.54-1,262V230c.41-3.28.85-6.55,1.21-9.84C6.13,165.93,26.64,118,62.81,77.1,102.59,32.15,152.13,4.19,211.39-6.14,220.54-7.73,229.8-8.73,239-10Zm38.42,386.82c0-16.11,0-31.75,0-47.39.08-21.16,0-42.32.46-63.46.26-11.48,6.35-20.26,15.66-26.49,18.06-12.08,40.85-4,46.71,16.83A83.46,83.46,0,0,1,342.92,278c.28,31.15.12,62.31.12,93.47v5.21h62.12c.08-1.64.2-2.95.2-4.27,0-34.16.07-68.31-.06-102.47A180.86,180.86,0,0,0,404,249.52c-4.36-36.74-26.34-59.92-61.72-64-25.47-2.91-47,4.82-62.23,26.68a34.41,34.41,0,0,1-2.6,2.79c0-7.72-.19-14.34.07-20.94.15-3.7-1-4.88-4.76-4.84-17.83.19-35.66.08-53.48.1a36.87,36.87,0,0,0-3.82.38V376.82Zm-97,0c.11-1.27.24-2.08.24-2.88q0-90.24.09-180.47c0-3.88-1.74-4.24-4.84-4.22-17.67.09-35.33,0-53,.06-1.45,0-2.9.21-4.36.33V376.86ZM114.67,131.45c0,19,14.56,32.52,34.84,32.42,20.43-.11,35.27-13.67,35.25-32.23,0-19-14.56-32.6-34.77-32.63C129.2,99,114.66,112.33,114.67,131.45Z" transform="translate(1 10)"/></svg>