<svg id="Layer_1" data-name="Layer 1" xmlns="http://www.w3.org/2000/svg" viewBox="0 0 383.25 383.36"><defs><style>.cls-1{fill:#f2f2f2;}</style></defs><path class="cls-1" d="M419.46,214v24a20.84,20.84,0,0,0-.62,2.88c-2.26,29.58-10.74,57.26-26.18,82.55-30.41,49.85-74.35,80.49-131.85,91.32-6.94,1.31-14,2-21,2.94h-24c-1.08-.22-2.15-.5-3.24-.65-7.9-1.11-15.88-1.75-23.67-3.36C91.84,393.52,25.79,302,37.57,203.75,43.84,151.47,67.84,108.63,109,76c43.91-34.87,94.22-47.61,149.54-39.16,36.63,5.59,68.88,21.26,96.49,46,33.06,29.63,53.74,66.33,61.54,110.13C417.76,199.91,418.49,207,419.46,214ZM311.74,166.46l-.38-1c8.27-5.77,14.41-13.09,17.42-22.23-8.08,2.88-16.15,5.73-24.19,8.62-2.26.81-3.76.12-5.58-1.48-13.3-11.69-28.59-15.08-45.2-8.83s-26.1,18.67-28.32,36.3c-.61,4.83-.09,9.8-.09,14.93-36.43-2.61-66.3-18.06-90.15-46a43.84,43.84,0,0,0-4.8,31.79c2.39,11,8.58,19.6,17.48,26.45l-.62,1-18.52-5.19c1.54,22,12.89,36.14,33.93,42.9l-.28.93H144.52a43.78,43.78,0,0,0,15.38,21.64c7.25,5.55,15.63,8.2,25.51,9.11C166,290,145,295.66,120.9,293.72c1.92,1.25,2.9,1.95,3.94,2.55a121.61,121.61,0,0,0,47.81,16.06c29.16,3.27,56.95-1.3,81.71-17.42,39.26-25.56,58.26-62.61,58.9-109.24a7.09,7.09,0,0,1,2.61-5.63c5.84-5.58,11.36-11.49,17-17.32a11.8,11.8,0,0,0,1.37-2.35Z" transform="translate(-36.21 -34.29)"/></svg>